<svg xmlns="http://www.w3.org/2000/svg" id="Calque_1" x="0" y="0" version="1.0" viewBox="0 0 595.3 841.9" xml:space="preserve"><style>.st1{fill:#1b1b1b}</style><g id="g844" transform="matrix(1.13749 0 0 1.13749 2.818 -1.884)"><path id="path4" fill="#020203" d="M384.7 380.7H399l.4-1.4h-13V372h11.8v-1.5h-11.8v-6.6H399v-1.5h-14.3v18.3zm-14.3.5c4.4 0 8.1-2 8.8-6.4h-1.8c-1.8 8.4-16.2 5.4-15-3.2-1.1-8.4 12.5-11.6 14.7-3.4l1.6-.2c-1.3-6.3-8.7-7.2-13.7-4.8-8.2 4.4-4.4 19.1 5.4 18zm-32.1-.5h1.6v-16l13.3 16h1.7v-18.2h-1.7v15.9l-13.3-15.9h-1.6v18.2zm-19-7l4.7-9.5 4.5 9.5h-9.2zm-5.1 7h1.6l2.8-5.5H329l2.8 5.5h1.8l-8.9-18.2h-1.8l-8.7 18.2zm-17.1-9.3v-7.5c3.4.5 12-1.8 11.8 3.7.5 5.1-8.4 3.6-11.8 3.8zm-1.7 9.3h1.6v-7.9h7.8l4.6 7.9h1.9l-4.8-8.2c4.2-.6 5.2-6.1 2.3-8.6-2.3-2.3-10.3-1.1-13.4-1.4v18.2zm-18.6 0h1.7v-8.4h11.2v-1.5h-11.2v-6.9h11.8v-1.5h-13.6l.1 18.3z"/><path id="path8" d="M148.2 400.3c13.3 0 22.5-8.4 26.5-18.4h-1.9c-11.8 24.1-47.3 9.5-45.4-15.7-2.2-23.9 32.8-31.1 36.4-5.8h9.8c-10.1-28.7-55.1-19.4-54.2 11.2 0 16.3 12.8 28.7 28.8 28.7z" class="st1"/><path id="rect10" d="M249.8 344.2h8.8V399h-8.8z" class="st1"/><path id="polygon12" d="M238.2 399h1.8v-54.8h-2.3l-23.6 46.5-24.8-46.5h-10l2.8 5.3V399h1.8v-46.2l24.6 46.2h3.4l26.3-51.9z" class="st1"/></g></svg>